/vscmnt/brussel_pixiu_data/_data_brussel/112/vsc11236/PredSimResults/SUBJ07mtu3D/worker5.mot
version=1
nRows=4
nColumns=50
inDegrees=yes
endheader
                time	         pelvis_tilt	         pelvis_list	     pelvis_rotation	           pelvis_tx	           pelvis_ty	           pelvis_tz	       hip_flexion_r	     hip_adduction_r	      hip_rotation_r	        knee_angle_r	       ankle_angle_r	         mtp_angle_r	       hip_flexion_l	     hip_adduction_l	      hip_rotation_l	        knee_angle_l	       ankle_angle_l	         mtp_angle_l	    lumbar_extension	      lumbar_bending	     lumbar_rotation	 ercspn_r/activation	 intobl_r/activation	 extobl_r/activation	    abd_r/activation	    add_r/activation	hamstrings_r/activation	bifemsh_r/activation	glut_max_r/activation	iliopsoas_r/activation	rect_fem_r/activation	  vasti_r/activation	gastroc_r/activation	 soleus_r/activation	tib_ant_r/activation	 ercspn_l/activation	 intobl_l/activation	 extobl_l/activation	    abd_l/activation	    add_l/activation	hamstrings_l/activation	bifemsh_l/activation	glut_max_l/activation	iliopsoas_l/activation	rect_fem_l/activation	  vasti_l/activation	gastroc_l/activation	 soleus_l/activation	tib_ant_l/activation	
          0.00000000	         -3.40075777	          0.42672859	          8.02839157	          0.00000000	          0.84957726	         -0.01304809	         29.17541023	         -2.46555979	         -3.85702060	         -6.63238712	          3.46848082	          0.26569062	        -15.56623472	          0.72430329	          3.67362963	         -7.77057203	          9.01326879	         25.79415766	        -10.63303675	         -2.04719410	         -1.61995543	          0.11232027	          0.14350794	          0.01000125	          0.02113459	          0.11589925	          0.06592448	          0.14495904	          0.08391557	          0.03230378	          0.01002122	          0.01000035	          0.01654479	          0.01398047	          0.39146483	          0.11824716	          0.01000030	          0.01000043	          0.03437428	          0.01268434	          0.02009437	          0.14789144	          0.01953769	          0.27572427	          0.01001342	          0.01000403	          0.13422835	          0.27876626	          0.01869142	
          0.01093995	         -3.40764567	          0.46172376	          8.00581458	          0.01558005	          0.84810311	         -0.01289763	         28.92543658	         -2.28859923	         -3.36673560	         -8.07524038	          3.17846607	          0.25077325	        -15.97281531	          0.67821651	          3.29994951	         -8.92122387	          8.15470917	         27.42043188	        -10.51550940	         -1.61851732	         -1.84226628	          0.10899739	          0.12979591	          0.01000037	          0.05588437	          0.10378615	          0.06445601	          0.13991532	          0.11297702	          0.02732214	          0.01000042	          0.01000010	          0.01399356	          0.01182456	          0.44309167	          0.13564592	          0.01000012	          0.01000069	          0.02907329	          0.01704965	          0.01699833	          0.12508497	          0.01652482	          0.23320419	          0.01000155	          0.01000026	          0.11352847	          0.25975200	          0.01580895	
          0.02187990	         -3.41090769	          0.50436714	          7.93396427	          0.03122299	          0.84693955	         -0.01264221	         28.62515334	         -2.13002661	         -2.93645110	         -9.39410959	          2.75239180	          0.23861660	        -16.21907021	          0.65236371	          2.89070312	        -10.35554615	          7.15054598	         29.01043834	        -10.40284459	         -1.19824589	         -2.05686049	          0.13201132	          0.10977965	          0.01000043	          0.11587599	          0.12373231	          0.05566075	          0.11833921	          0.13009607	          0.02310873	          0.01000050	          0.01000014	          0.01183568	          0.01000113	          0.47639582	          0.16059155	          0.01000014	          0.01000045	          0.02458978	          0.01603554	          0.01439065	          0.10579551	          0.01397665	          0.19724139	          0.01000425	          0.01000122	          0.09602079	          0.22223521	          0.01337100	
          0.03281985	         -3.41103904	          0.55754566	          7.81816325	          0.04676450	          0.84623812	         -0.01228557	         28.35627797	         -1.97619902	         -2.57657337	        -10.77062048	          2.42770681	          0.21939213	        -16.23141827	          0.65040094	          2.44993593	        -12.17764446	          5.99713316	         30.48802073	        -10.30991749	         -0.79016134	         -2.26269715	          0.14324831	          0.09285014	          0.01000038	          0.16011568	          0.15170249	          0.04763207	          0.10009001	          0.15510713	          0.01954509	          0.01000070	          0.01000052	          0.01001081	          0.01000057	          0.49180735	          0.19578919	          0.01000014	          0.01000043	          0.02079770	          0.02673925	          0.01343122	          0.08948081	          0.01182148	          0.16682447	          0.01000304	          0.01000098	          0.08121304	          0.18796346	          0.01130902	
